<svg width="181" height="181" viewBox="0 0 181 181" fill="none" xmlns="http://www.w3.org/2000/svg">
<path d="M171.016 113.048C172.1 112.36 173.215 111.714 174.26 110.97C175.195 110.305 175.96 109.287 176.98 108.891C177.68 108.62 179.035 108.873 179.459 109.402C179.856 109.897 179.752 111.404 179.279 111.881C176.9 114.28 174.332 116.492 171.824 118.763C170.666 119.812 169.494 120.846 168.061 122.003C167.645 122.209 167.545 122.338 167.495 122.505C167.495 122.505 167.497 122.497 167.325 122.515C166.346 123.744 165.347 124.869 164.761 126.179C158.736 139.657 149.48 150.504 137.771 159.323C125.776 168.357 112.088 173.239 97.3378 175.352C95.7203 175.584 94.0408 175.383 92.39 175.383C95.0605 172.294 97.9196 169.894 100.659 167.366C102.638 165.539 104.458 163.54 106.444 161.695C106.538 161.771 106.427 161.987 106.533 161.912C106.764 161.716 106.89 161.596 107.169 161.379C123.316 156.874 136.596 148.294 146.49 134.954C150.17 129.992 152.918 124.337 156.273 118.944C157.523 118.119 158.636 117.404 159.65 116.568C163.287 113.571 166.891 110.533 170.503 107.505C170.499 107.5 170.489 107.492 170.5 107.705C170.042 110.417 169.572 112.917 169.102 115.416C169.251 115.466 169.4 115.515 169.549 115.565C169.876 115.038 170.202 114.51 170.712 113.917C170.946 113.566 170.996 113.28 171.026 112.999C171.004 113.005 171.016 113.048 171.016 113.048Z" fill="#26ABBE"/>
<path d="M7.06433 62.3109C8.04182 59.8424 9.01933 57.3738 10.155 54.6664C10.3436 54.2008 10.374 53.9741 10.4044 53.7474C10.1657 53.8777 9.92686 54.0081 9.68806 54.1384C9.18676 54.404 8.67405 54.904 8.18684 54.8803C7.45396 54.8446 6.32569 54.6273 6.11318 54.1526C5.79449 53.4406 5.76975 52.0716 6.23664 51.6212C8.71966 49.2261 11.5106 47.1484 13.9747 44.7359C17.1273 41.6494 20.0316 38.3111 23.114 35.1506C26.3309 31.8522 29.3077 28.1974 32.9728 25.4872C38.4241 21.456 44.2053 17.7777 50.1791 14.5694C57.9224 10.4106 66.3052 7.84518 75.1091 7.02748C80.4374 6.53259 85.7938 6.34172 91.2788 6.18774C88.8996 8.0844 86.3666 9.78958 83.8618 11.5352C80.5595 13.8366 77.2793 16.1698 73.9979 18.4767C74.0061 18.4639 74.0316 18.4812 73.9437 18.5112C73.7535 18.611 73.6487 18.6772 73.3579 18.83C62.2473 21.5305 52.2685 26.1271 43.3611 33.0242C37.1187 37.8577 32.1311 43.8607 27.0875 50.0187C26.7667 50.2075 26.6282 50.3709 26.4879 50.5167C26.4862 50.4991 26.5212 50.4952 26.3547 50.3931C20.8391 53.7797 15.5001 57.284 10.1318 60.7429C9.1713 61.3618 8.0899 61.793 7.06433 62.3109Z" fill="#F45FAC"/>
<path d="M38.4703 161.044C34.6354 159.099 34.6034 159.063 31.1104 162.148C27.4667 165.366 23.8604 168.629 20.3071 171.946C19.1 173.073 17.8374 173.625 16.7094 172.28C16.2597 171.743 16.2972 170.055 16.7812 169.596C20.7865 165.798 24.9496 162.166 29.0624 158.481C29.9097 157.722 30.7466 156.951 31.786 156.006C25.8519 151.156 21.0709 145.58 17.1233 139.124C20.6266 136.235 24.0046 133.611 27.5171 131.099C29.5373 133.628 31.1951 136.278 33.357 138.418C37.7039 142.721 42.3256 146.746 46.7007 150.981C44.0216 153.389 41.5168 155.749 38.9105 157.992C37.7902 158.956 37.3143 159.78 38.5472 160.948C38.5211 160.98 38.4703 161.044 38.4703 161.044Z" fill="#1D6FAF"/>
<path d="M106.349 161.618C104.458 163.54 102.638 165.539 100.659 167.366C97.9196 169.894 95.0605 172.294 92.39 175.384C94.0408 175.384 95.7203 175.584 97.3378 175.352C112.088 173.239 125.776 168.357 137.771 159.323C149.48 150.505 158.736 139.657 164.761 126.179C165.347 124.869 166.346 123.744 167.329 122.515C165.756 126.461 164.284 130.577 162.204 134.359C157.805 142.358 152.036 149.379 145.243 155.442C137.403 162.44 128.56 167.891 118.683 171.669C107.545 175.929 96.0249 178.11 84.1732 177.329C77.5081 176.89 70.9304 175.124 64.1279 173.711C64.6778 173.363 65.4473 173.069 66.142 173.193C67.9324 173.513 69.703 173.972 71.4563 174.464C73.0262 174.905 74.2231 174.599 75.4758 173.444C79.0723 170.128 82.8088 166.964 86.7243 163.709C93.422 162.992 99.8856 162.305 106.349 161.618Z" fill="#1D6FAF"/>
<path d="M6.91856 62.4068C8.0899 61.793 9.17131 61.3618 10.1318 60.7429C15.5001 57.284 20.8391 53.7797 26.3851 50.5833C25.5523 52.9394 24.5425 55.0136 23.4888 57.0653C19.7783 64.2902 17.4975 71.9805 15.8545 80.0113C14.729 80.8508 13.7674 81.6268 12.777 82.3642C9.22398 85.0095 5.66119 87.6418 2.10208 90.279C1.51715 81.2294 3.62852 72.6004 6.20259 64.0449C6.36018 63.5211 6.58125 63.0163 6.91856 62.4068Z" fill="#FCCC15"/>
<path d="M8.09284 122.421C7.78014 121.79 7.46744 121.159 7.09482 120.408C5.90972 121.338 4.75371 122.225 3.6211 123.141C2.57286 123.988 1.54936 123.965 0.722353 122.925C-0.162275 121.814 -0.00896972 120.67 1.06192 119.726C1.85549 119.026 2.61086 118.164 3.54944 117.772C5.85881 116.808 5.48796 115.318 5.02634 113.363C4.0242 109.119 3.34232 104.799 2.7388 100.285C7.05356 97.4055 11.159 94.7515 15.3207 92.3524C15.5632 99.964 17.0872 107.085 19.0347 114.243C15.2973 117.06 11.6951 119.74 8.09284 122.421Z" fill="#F45FAC"/>
<path d="M160.914 48.1547C163.011 52.183 165.108 56.2113 167.414 60.6428C168.281 59.9865 169.279 59.2747 170.227 58.5025C171.429 57.5244 172.486 56.3098 173.811 55.5643C174.559 55.144 175.721 55.4618 176.697 55.4472C176.533 56.4818 176.733 57.8546 176.141 58.4902C174.018 60.7701 171.627 62.8007 168.995 65.0306C168.944 67.1014 169.236 69.067 169.422 71.1602C166.521 73.7795 163.727 76.2713 160.845 78.5737C159.331 70.245 156.389 62.6242 152.961 55.091C155.701 52.6955 158.308 50.4251 160.914 48.1547Z" fill="#F45FAC"/>
<path d="M8.05958 122.61C11.6951 119.74 15.2973 117.06 19.1321 114.407C22.0372 119.953 24.7099 125.47 27.3826 130.988C24.0046 133.611 20.6266 136.235 17.1016 138.947C16.1543 138.047 15.354 137.06 14.3872 135.867C12.1075 137.814 9.76864 139.711 7.55204 141.742C6.3203 142.871 5.21741 142.726 4.4114 141.533C3.71186 140.498 3.60255 139.502 5.03623 138.446C7.62119 136.544 9.89338 134.216 12.2303 132.125C10.7897 128.929 9.40798 125.864 8.05958 122.61Z" fill="#26ABBE"/>
<path d="M73.9896 18.4894C77.2793 16.1698 80.5595 13.8366 83.8618 11.5352C86.3666 9.78954 88.8996 8.08436 91.5182 6.22172C95.2506 6.47151 98.8813 6.89955 102.522 7.21946C103.312 7.28896 104.318 7.22018 104.915 6.78764C107.344 5.02752 109.592 3.01464 112.047 1.29426C112.695 0.839853 114.27 0.688516 114.676 1.11163C115.643 2.11901 116.103 3.5304 114.57 4.69636C112.96 5.91972 111.384 7.18632 109.444 8.47817C108.194 8.84358 107.148 8.97106 106.418 9.51901C102.91 12.1506 99.4883 14.8959 95.7997 17.6165C90.8386 17.6708 86.1115 17.635 81.3898 17.7782C78.9182 17.8532 76.456 18.2422 73.9896 18.4894Z" fill="#FCCC15"/>
<path d="M96.0359 17.6008C99.4883 14.8959 102.91 12.1507 106.418 9.51903C107.148 8.97108 108.194 8.8436 109.285 8.552C115.766 11.104 122.056 13.6264 128.287 16.383C124.873 18.9135 121.518 21.2095 118.003 23.4758C110.827 20.5544 103.561 18.5961 96.0359 17.6008Z" fill="#1D6FAF"/>
<path d="M170.528 113.983C170.202 114.51 169.876 115.038 169.549 115.565C169.4 115.515 169.251 115.466 169.102 115.416C169.572 112.917 170.042 110.417 170.534 107.692C170.557 107.467 170.571 107.392 170.571 107.392L170.507 107.51C166.891 110.533 163.287 113.571 159.65 116.568C158.636 117.404 157.523 118.119 156.317 118.739C157.957 111.722 159.735 104.856 161.661 97.9156C164.717 95.2986 167.569 92.6864 170.576 90.266C171.28 89.699 172.507 89.781 173.493 89.5645C173.549 97.3481 172.547 105.017 171.005 112.837C171.016 113.048 171.004 113.005 170.87 113.041C170.667 113.379 170.598 113.681 170.528 113.983Z" fill="#1D6FAF"/>
<path d="M86.4903 163.741C82.8088 166.964 79.0723 170.128 75.4758 173.444C74.2231 174.599 73.0262 174.905 71.4563 174.464C69.703 173.972 67.9324 173.513 66.142 173.193C65.4473 173.069 64.6778 173.363 63.9244 173.666C61.5502 175.882 59.2637 177.99 56.7859 179.843C56.2091 180.274 54.9814 179.834 54.0532 179.795C54.1136 178.865 53.8118 177.608 54.3017 177.064C55.83 175.367 57.6579 173.939 59.5847 172.22C59.7936 171.745 59.7874 171.456 59.9207 171.046C63.4311 167.791 66.802 164.656 70.3667 161.523C75.8703 162.263 81.1803 163.002 86.4903 163.741Z" fill="#FCCC15"/>
<path d="M173.655 89.4989C172.507 89.781 171.28 89.699 170.576 90.2659C167.569 92.6864 164.717 95.2985 161.632 97.6833C161.281 91.2715 161.107 85.0172 160.933 78.763C163.727 76.2712 166.521 73.7794 169.575 71.2738C170.689 76.0019 171.542 80.7439 172.474 85.9248C172.789 85.194 172.936 84.8532 173.083 84.5123C174.157 83.6631 175.205 82.7786 176.312 81.9746C177.442 81.1537 178.617 80.2803 179.944 81.6976C181.278 83.1226 180.286 84.1094 179.257 84.9901C177.478 86.5117 175.634 87.9563 173.655 89.4989Z" fill="#FCCC15"/>
<path d="M160.94 47.967C158.308 50.425 155.701 52.6955 152.835 54.9753C148.489 49.5258 144.402 44.067 140.474 38.5244C143.395 36.2989 146.156 34.1572 148.918 32.0156C152.934 37.2702 156.95 42.5248 160.94 47.967Z" fill="#1D6FAF"/>
<path d="M118.162 23.5056C121.518 21.2095 124.873 18.9134 128.379 16.5326C130.201 17.4097 131.872 18.3714 133.722 19.4356C137.708 16.2917 141.863 13.0162 146.015 9.73703C146.273 9.53311 146.504 9.12193 146.757 9.11444C147.799 9.08365 148.844 9.17149 149.888 9.21571C149.766 10.2173 149.967 11.4554 149.447 12.1667C148.605 13.3201 147.323 14.171 146.167 15.0732C143.336 17.2824 140.471 19.448 137.465 21.9234C134.371 24.5142 131.431 26.8128 128.343 29.0739C124.851 27.1928 121.506 25.3492 118.162 23.5056Z" fill="#F45FAC"/>
<path d="M128.491 29.1115C131.431 26.8129 134.371 24.5143 137.422 22.0875C141.32 25.1976 145.106 28.4358 148.905 31.8448C146.156 34.1572 143.395 36.2989 140.318 38.4705C136.165 35.3708 132.328 32.2411 128.491 29.1115Z" fill="#26ABBE"/>
<path d="M15.2645 92.0975C11.159 94.7515 7.05356 97.4055 2.76982 100.072C2.40381 96.957 2.21605 93.8288 2.06519 90.4898C5.66119 87.6418 9.22398 85.0095 12.777 82.3642C13.7674 81.6268 14.729 80.8508 15.8709 80.2386C15.7802 84.289 15.5223 88.1933 15.2645 92.0975Z" fill="#1D6FAF"/>
<path d="M59.7813 171.168C59.7874 171.456 59.7936 171.745 59.6616 172.07C54.116 169.573 48.6784 167.1 43.3187 164.469C41.647 163.649 40.1857 162.399 38.5492 161.195C38.4703 161.044 38.5211 160.98 38.724 160.977C39.9934 161.602 41.0205 162.312 42.1333 162.843C48.0041 165.643 53.8964 168.397 59.7813 171.168Z" fill="#1D6FAF"/>
<path d="M173.05 84.2951C172.936 84.8531 172.789 85.194 172.474 85.9248C171.542 80.7439 170.689 76.0019 169.681 71.1462C169.236 69.067 168.944 67.1013 168.837 65.0935C170.353 71.3936 171.685 77.7357 173.05 84.2951Z" fill="#1D6FAF"/>
<path d="M167.623 122.478C167.545 122.338 167.645 122.209 167.909 122.074C167.933 122.171 167.842 122.311 167.623 122.478Z" fill="#1D6FAF"/>
<path d="M15.3207 92.3524C15.5223 88.1932 15.7802 84.2889 16.0216 80.1574C17.4975 71.9805 19.7784 64.2902 23.4888 57.0653C24.5425 55.0136 25.5523 52.9394 26.5517 50.6853C26.5213 50.4951 26.4862 50.4991 26.6577 50.502C26.976 50.3344 27.1229 50.1638 27.2698 49.9931C32.1311 43.8607 37.1187 37.8576 43.3611 33.0241C52.2685 26.1271 62.2473 21.5304 73.4542 18.8133C73.8771 18.689 73.9762 18.614 74.0316 18.4812C74.0316 18.4812 74.0061 18.4639 73.9979 18.4766C76.456 18.2422 78.9182 17.8532 81.3898 17.7782C86.1115 17.635 90.8386 17.6707 95.7997 17.6165C103.561 18.5961 110.827 20.5543 118.003 23.4757C121.506 25.3492 124.851 27.1928 128.343 29.0739C132.328 32.2411 136.165 35.3708 140.158 38.5543C144.402 44.067 148.489 49.5258 152.701 55.1003C156.389 62.6241 159.331 70.2449 160.845 78.5736C161.107 85.0172 161.281 91.2715 161.484 97.758C159.735 104.856 157.957 111.722 156.135 118.793C152.918 124.337 150.17 129.992 146.49 134.954C136.596 148.294 123.316 156.874 106.995 161.38C106.586 161.648 106.506 161.817 106.427 161.987C106.427 161.987 106.538 161.771 106.444 161.695C99.8856 162.305 93.422 162.991 86.7243 163.709C81.1803 163.002 75.8703 162.263 70.186 161.44C61.5859 159.109 54.0068 155.443 46.8339 150.886C42.3256 146.746 37.7039 142.721 33.357 138.418C31.1951 136.278 29.5373 133.628 27.5171 131.099C24.7099 125.47 22.0372 119.953 19.2671 114.271C17.0872 107.085 15.5632 99.9639 15.3207 92.3524ZM77.3335 94.6972C78.3894 94.681 79.4453 94.6649 80.7905 94.8178C81.1037 94.9269 81.4169 95.0361 81.892 95.4671C83.7467 98.759 82.5212 100.9 78.7435 100.945C77.1747 100.963 75.6055 100.95 74.0365 100.939C71.9713 100.924 70.4236 101.606 70.2802 103.933C70.154 105.982 71.4333 107.027 74.4488 107.258C76.9656 107.223 79.4824 107.189 82.3166 107.313C82.543 107.381 82.7695 107.448 83.1758 107.808C83.4434 109.085 84.32 110.736 83.8238 111.545C83.2095 112.547 81.5096 113.15 80.183 113.385C78.3311 113.712 76.3908 113.538 74.0257 113.51C69.2177 113.485 64.4097 113.474 59.6019 113.427C57.5463 113.407 55.95 114.023 55.6587 116.3C55.4132 118.219 56.8516 119.704 59.3075 119.772C63.1949 119.879 67.089 119.742 71.4382 119.819C74.8822 119.931 78.3263 120.044 81.9336 120.482C83.8687 123.613 82.8588 125.666 79.2185 126.036C78.6523 126.094 78.0966 126.253 77.0622 126.322C73.565 126.301 70.0676 126.292 66.5706 126.252C64.5342 126.229 63.0695 126.965 63.0706 129.199C63.0717 131.36 64.4946 132.321 66.4956 132.349C68.9879 132.383 71.4825 132.263 74.4348 132.319C80.6789 132.338 86.9239 132.407 93.166 132.305C93.889 132.293 95.1195 131.427 95.2324 130.798C96.8347 121.877 98.2846 112.929 99.8946 103.549C100.052 102.158 100.143 100.755 100.381 99.3772C101.011 95.7416 101.706 92.1171 102.503 88.1059C102.812 86.2283 103.121 84.3507 103.606 82.2667C103.621 82.007 103.637 81.7473 103.791 81.103C103.845 80.5623 103.899 80.0217 104.126 79.2713C104.14 79.01 104.154 78.7488 104.308 78.0767C104.431 77.0739 104.554 76.0712 104.829 74.7319C105.026 73.4791 105.222 72.2263 105.6 70.7632C105.621 70.4951 105.642 70.2271 106.044 69.6998C108.348 69.5701 110.653 69.4404 113.421 69.4241C117.973 69.4363 122.527 69.5235 127.075 69.3887C127.856 69.3656 129.181 68.4881 129.283 67.8496C130.107 62.7071 130.709 57.5285 131.355 52.3579C131.535 50.9159 131.002 50.2623 129.032 50.8413C120.205 50.8572 111.378 50.873 102.077 50.8239C94.0612 50.8458 86.0453 50.8678 77.5634 50.8002C71.5941 50.7701 65.6248 50.7215 59.6556 50.7186C57.0382 50.7173 55.6604 51.8126 55.6675 53.7578C55.6745 55.6973 57.1286 56.9286 59.5871 56.9427C64.2298 56.9694 68.8728 56.9376 73.7555 57.1946C75.1897 58.0556 75.9485 59.2781 75.4175 60.9445C74.8488 62.7295 73.3733 63.1545 71.6647 63.1738C70.2666 63.1896 68.8697 63.3169 67.0143 63.3052C62.3545 63.2822 57.6946 63.2447 53.0348 63.2432C51.0944 63.2426 49.7623 64.1522 49.7184 66.1765C49.6731 68.2717 50.8942 69.4189 52.9997 69.4172C56.6581 69.4144 60.3164 69.3366 64.4316 69.4143C69.5714 69.4196 74.7118 69.3875 79.8508 69.4575C81.0646 69.4741 82.2737 69.8341 83.6257 70.3692C85.2381 73.6395 84.1512 75.5307 80.5755 75.6035C78.4198 75.6474 76.2623 75.5937 74.1059 75.6122C72.0316 75.6301 70.5103 76.3972 70.3958 78.7168C70.2949 80.7607 71.6837 81.9645 74.168 81.9822C78.1492 82.0106 82.1308 81.9587 86.1122 81.9732C89.4238 81.9853 90.3463 82.9517 90.0977 86.496C89.6922 86.9665 89.2867 87.437 88.4883 87.999C85.2118 88.1223 81.9361 88.2788 78.6585 88.3551C76.9827 88.3941 75.4244 88.6474 74.9679 90.5271C74.5285 92.3366 75.2005 93.7534 77.3335 94.6972ZM66.1725 105.919C67.1345 103.593 66.7166 101.564 64.8109 101.253C62.4888 100.874 60.0196 100.922 57.6953 101.294C56.8873 101.423 55.8095 103.056 55.7889 104.022C55.7683 104.991 56.7763 106.685 57.5716 106.84C60.3431 107.38 63.279 108.072 66.1725 105.919ZM61.0601 88.456C59.1818 88.9982 58.0316 90.3275 58.695 92.1412C59.0883 93.2164 60.4631 94.3117 61.6141 94.6437C63.4297 95.1674 65.1342 93.6375 65.3121 91.8524C65.5119 89.849 64.1191 88.6192 61.0601 88.456Z" fill="#FEFEFE"/>
<path d="M170.712 113.917C170.598 113.681 170.667 113.379 170.892 113.035C170.996 113.28 170.946 113.566 170.712 113.917Z" fill="black"/>
<path d="M106.533 161.912C106.506 161.817 106.586 161.648 106.84 161.477C106.89 161.596 106.764 161.716 106.533 161.912Z" fill="#1D6FAF"/>
<path d="M9.77426 54.2387C9.92686 54.008 10.1657 53.8777 10.4044 53.7473C10.3741 53.974 10.3436 54.2008 10.1764 54.4807C9.97984 54.469 9.92015 54.404 9.77426 54.2387Z" fill="black"/>
<path d="M27.0875 50.0187C27.1229 50.1638 26.976 50.3344 26.6594 50.5197C26.6282 50.3709 26.7667 50.2075 27.0875 50.0187Z" fill="#FCCC15"/>
<path d="M73.9438 18.5112C73.9762 18.614 73.8771 18.6891 73.638 18.7232C73.6487 18.6773 73.7535 18.6111 73.9438 18.5112Z" fill="#FCCC15"/>
<path d="M46.7007 150.981C54.0068 155.443 61.5859 159.109 69.9923 161.439C66.802 164.656 63.4311 167.791 59.9207 171.046C53.8964 168.397 48.0041 165.643 42.1333 162.843C41.0205 162.312 39.9935 161.602 38.75 160.945C37.3143 159.78 37.7902 158.956 38.9105 157.992C41.5168 155.749 44.0216 153.389 46.7007 150.981Z" fill="#F45FAC"/>
<path d="M170.503 107.505C170.507 107.51 170.571 107.392 170.571 107.392C170.571 107.392 170.557 107.467 170.523 107.48C170.489 107.492 170.499 107.5 170.503 107.505Z" fill="#26ABBE"/>
<path d="M90.3329 86.2941C90.3463 82.9517 89.4238 81.9853 86.1122 81.9732C82.1308 81.9587 78.1492 82.0106 74.168 81.9822C71.6837 81.9646 70.2949 80.7607 70.3958 78.7168C70.5103 76.3973 72.0316 75.6301 74.1059 75.6122C76.2623 75.5937 78.4198 75.6474 80.5755 75.6035C84.1512 75.5307 85.2381 73.6395 83.681 70.089C84.5423 69.2416 85.4471 68.7743 86.1386 68.091C91.1541 63.1347 96.1408 58.149 101.094 53.1308C101.707 52.5096 102.071 51.6422 102.55 50.8889C111.378 50.8731 120.205 50.8572 129.237 51.0416C128.85 52.0253 128.338 52.8873 127.655 53.5792C123.331 57.9533 118.947 62.2669 114.644 66.6609C113.927 67.3929 113.512 68.42 112.957 69.3107C110.653 69.4404 108.348 69.5701 105.762 69.8811C105.459 70.3661 105.439 70.6698 105.418 70.9735C105.222 72.2263 105.026 73.4791 104.57 74.9117C103.523 75.661 102.651 76.1436 101.964 76.8152C98.9491 79.7602 96.0392 82.8148 92.9614 85.6906C92.3932 86.2214 91.2244 86.1094 90.3329 86.2941Z" fill="#CE9888"/>
<path d="M102.314 50.8565C102.071 51.6423 101.707 52.5097 101.094 53.1308C96.1408 58.1491 91.1541 63.1348 86.1386 68.0911C85.4471 68.7743 84.5423 69.2416 83.6106 69.9225C82.2737 69.8342 81.0646 69.4742 79.8508 69.4576C74.7118 69.3876 69.5714 69.4197 64.2061 69.177C64.4734 68.0569 64.9286 67.1505 65.4689 66.298C66.0978 65.3056 66.8012 64.3605 67.4723 63.3948C68.8697 63.317 70.2666 63.1897 71.6647 63.1739C73.3733 63.1546 74.8488 62.7296 75.4175 60.9446C75.9485 59.2781 75.1897 58.0557 73.6654 56.8985C75.0601 54.6981 76.5448 52.794 78.0295 50.8898C86.0453 50.8679 94.0612 50.8459 102.314 50.8565Z" fill="#B48172"/>
<path d="M99.7714 103.988C98.2846 112.929 96.8347 121.877 95.2324 130.798C95.1195 131.427 93.889 132.293 93.166 132.305C86.9239 132.407 80.6789 132.338 74.2247 132.109C74.5637 131.127 75.1491 130.378 75.6529 129.579C76.3142 128.529 76.9113 127.439 77.536 126.366C78.0966 126.253 78.6523 126.094 79.2185 126.036C82.8588 125.667 83.8687 123.613 82.043 120.258C83.1826 119.357 84.3483 118.822 85.2191 117.982C88.6357 114.684 91.9353 111.266 95.329 107.944C96.7444 106.559 98.2867 105.303 99.7714 103.988Z" fill="#ECB7A5"/>
<path d="M90.2153 86.3951C91.2244 86.1095 92.3932 86.2215 92.9614 85.6906C96.0392 82.8149 98.9491 79.7603 101.964 76.8152C102.651 76.1437 103.523 75.6611 104.494 75.0801C104.554 76.0713 104.431 77.074 104.147 78.3332C103.975 78.8867 103.964 79.1839 103.953 79.481C103.899 80.0217 103.845 80.5624 103.633 81.3463C103.46 81.8841 103.445 82.1786 103.43 82.4731C103.121 84.3508 102.812 86.2284 102.281 88.3396C97.6598 92.801 93.2285 96.9959 88.8759 101.271C86.8376 103.273 84.9512 105.429 82.996 107.516C82.7695 107.448 82.543 107.381 82.042 107.103C79.1797 106.965 76.5921 107.037 74.0045 107.109C71.4333 107.027 70.154 105.982 70.2802 103.933C70.4236 101.606 71.9713 100.924 74.0365 100.939C75.6055 100.95 77.1747 100.963 78.7435 100.945C82.5212 100.9 83.7467 98.7591 82.0217 95.2719C85.6114 94.3556 87.2416 91.5031 89.1498 88.9987C89.2922 88.8118 88.9814 88.2795 88.8812 87.9077C89.2867 87.4371 89.6922 86.9666 90.2153 86.3951Z" fill="#D7A291"/>
<path d="M83.0859 107.662C84.9512 105.429 86.8376 103.273 88.8759 101.271C93.2285 96.9958 97.6598 92.8009 102.217 88.5308C101.706 92.1172 101.011 95.7417 100.381 99.3773C100.143 100.755 100.052 102.158 99.8329 103.769C98.2867 105.303 96.7444 106.559 95.329 107.944C91.9353 111.266 88.6357 114.684 85.2191 117.982C84.3483 118.822 83.1826 119.357 81.9614 120.095C78.3263 120.044 74.8822 119.931 71.216 119.597C71.6131 118.384 72.2441 117.399 72.8482 116.398C73.4098 115.467 73.9427 114.519 74.4883 113.579C76.3908 113.538 78.3311 113.712 80.183 113.385C81.5096 113.15 83.2095 112.547 83.8238 111.545C84.32 110.736 83.4434 109.085 83.0859 107.662Z" fill="#E1AC9B"/>
<path d="M113.189 69.3674C113.512 68.4199 113.927 67.3928 114.644 66.6608C118.947 62.2669 123.331 57.9532 127.655 53.5792C128.338 52.8873 128.85 52.0252 129.47 51.0639C131.002 50.2623 131.535 50.9158 131.355 52.3579C130.709 57.5285 130.107 62.707 129.283 67.8496C129.181 68.488 127.856 69.3656 127.075 69.3887C122.527 69.5235 117.973 69.4363 113.189 69.3674Z" fill="#E1AC9B"/>
<path d="M77.7964 50.845C76.5448 52.7939 75.0601 54.698 73.5455 56.7662C68.8728 56.9376 64.2298 56.9694 59.5871 56.9427C57.1286 56.9286 55.6744 55.6973 55.6675 53.7578C55.6604 51.8126 57.0382 50.7174 59.6556 50.7186C65.6248 50.7215 71.5941 50.7701 77.7964 50.845Z" fill="#A46F60"/>
<path d="M74.257 113.545C73.9427 114.519 73.4098 115.467 72.8482 116.398C72.2441 117.399 71.6131 118.384 70.9871 119.542C67.089 119.742 63.1949 119.879 59.3075 119.772C56.8516 119.704 55.4132 118.219 55.6587 116.3C55.95 114.023 57.5463 113.407 59.6019 113.427C64.4096 113.474 69.2177 113.485 74.257 113.545Z" fill="#D7A291"/>
<path d="M67.2433 63.35C66.8012 64.3605 66.0978 65.3056 65.4689 66.298C64.9286 67.1505 64.4734 68.0569 63.9777 69.1149C60.3164 69.3366 56.6581 69.4144 52.9997 69.4173C50.8942 69.4189 49.6731 68.2718 49.7184 66.1766C49.7623 64.1523 51.0944 63.2426 53.0348 63.2433C57.6946 63.2448 62.3545 63.2823 67.2433 63.35Z" fill="#A46F60"/>
<path d="M77.2991 126.344C76.9113 127.438 76.3142 128.529 75.6529 129.579C75.1491 130.378 74.5637 131.127 73.9953 132.053C71.4825 132.263 68.9879 132.384 66.4956 132.349C64.4946 132.321 63.0717 131.36 63.0706 129.199C63.0696 126.965 64.5342 126.229 66.5706 126.252C70.0676 126.292 73.565 126.301 77.2991 126.344Z" fill="#E1AC9B"/>
<path d="M88.6847 87.9534C88.9814 88.2795 89.2922 88.8118 89.1498 88.9987C87.2416 91.5031 85.6114 94.3556 81.9407 95.111C81.4169 95.0361 81.1037 94.927 80.5426 94.6098C79.195 94.4388 78.0953 94.4758 76.9957 94.5128C75.2005 93.7535 74.5285 92.3367 74.9679 90.5272C75.4244 88.6475 76.9827 88.3941 78.6585 88.3552C81.9361 88.2789 85.2118 88.1223 88.6847 87.9534Z" fill="#CE9888"/>
<path d="M66.0501 106.065C63.279 108.072 60.3431 107.38 57.5716 106.84C56.7763 106.685 55.7683 104.991 55.7889 104.022C55.8095 103.056 56.8873 101.423 57.6953 101.294C60.0196 100.922 62.4889 100.875 64.8109 101.253C66.7166 101.564 67.1345 103.593 66.0501 106.065Z" fill="#A46F60"/>
<path d="M61.2389 88.4348C64.1191 88.6192 65.5119 89.849 65.3121 91.8524C65.1342 93.6375 63.4297 95.1674 61.6141 94.6437C60.4631 94.3117 59.0883 93.2165 58.695 92.1412C58.0316 90.3275 59.1818 88.9983 61.2389 88.4348Z" fill="#A46F60"/>
<path d="M74.2267 107.183C76.5921 107.037 79.1797 106.965 81.8833 107.023C79.4824 107.189 76.9656 107.223 74.2267 107.183Z" fill="#E1AC9B"/>
<path d="M77.1646 94.6049C78.0953 94.4757 79.195 94.4386 80.3979 94.5252C79.4453 94.6648 78.3894 94.681 77.1646 94.6049Z" fill="#D7A291"/>
<path d="M103.518 82.37C103.445 82.1786 103.46 81.8841 103.564 81.5386C103.637 81.7473 103.621 82.0071 103.518 82.37Z" fill="#E1AC9B"/>
<path d="M104.039 79.3762C103.964 79.1839 103.975 78.8867 104.077 78.5386C104.154 78.7488 104.14 79.0101 104.039 79.3762Z" fill="#E1AC9B"/>
<path d="M105.509 70.8683C105.439 70.6698 105.459 70.3661 105.572 70.0107C105.642 70.2272 105.621 70.4952 105.509 70.8683Z" fill="#E1AC9B"/>
</svg>
